# xmcd
#
# Track frame offsets: 
#        150
#        13307
#        28382
#        43092
#        60885
#        75212
#        87802
#        100745
#        114277
#        128492
#        140965
#        156875
#        172337
#        185812
#        208765
#
# Disc length: 2992 seconds
#
# Revision: 1
# Processed by: cddbd v1.5.2PL0 Copyright (c) Steve Scherf et al.
# Submitted via: ExactAudioCopy v0.99pb4
#
DISCID=cc0bae0f
DTITLE=Pena Branca - Semente Caipira
DYEAR=1900
DGENRE=Country
TTITLE0=Espera Eu Chegar
TTITLE1=Casas Amarela
TTITLE2=Marcolino
TTITLE3=Minha Floresta
TTITLE4=Rio Abaixo Vou Viver
TTITLE5=Correnteza
TTITLE6=Quando O Amor Se Vai
TTITLE7=As Mocinhas Da Cidade
TTITLE8=Papo Furado
TTITLE9=A Banana Deu No Pé
TTITLE10=Canção Dos Herdeiros
TTITLE11=Maringá
TTITLE12=Aliança
TTITLE13=São Gonçalo Do Rio Preto
TTITLE14=Serenô
EXTD=Primeiro álbum depois da morte de Xavantinho. Participação especi
EXTD=al de Inezita Barroso na música "Marcolino"
EXTT0=
EXTT1=
EXTT2=
EXTT3=
EXTT4=
EXTT5=
EXTT6=
EXTT7=
EXTT8=
EXTT9=
EXTT10=
EXTT11=
EXTT12=
EXTT13=
EXTT14=
PLAYORDER=
